<svg width="40" height="40" viewBox="0 0 40 40" fill="none" xmlns="http://www.w3.org/2000/svg">
<path fill-rule="evenodd" clip-rule="evenodd" d="M20.4906 7.42857C18.924 7.42857 17.4428 7.78225 16.1226 8.41264C13.557 9.6376 11.5973 11.9081 10.8077 14.6625C12.8549 11.5156 16.4262 9.43114 20.4906 9.43114C24.5539 9.43114 28.1255 11.5149 30.173 14.6614C28.9755 10.4866 25.0941 7.42857 20.4906 7.42857ZM30.5542 20.8163C30.5542 15.3175 26.0487 10.8597 20.4906 10.8597C16.0163 10.8597 12.2226 13.7491 10.9145 17.7458C11.1583 17.9452 11.3634 18.2545 11.3634 18.689V19.9242C11.3634 20.1895 11.2623 20.5198 10.9991 20.7872C10.9531 20.8338 10.904 20.8768 10.8519 20.9162L11.6513 22.5228L11.6678 22.6338C11.7118 22.9298 11.6995 23.3917 11.4652 23.8119C11.257 24.1852 10.9057 24.4652 10.427 24.5717V35.5015C10.427 35.8996 10.5906 36.1294 10.8003 36.2869C11.0283 36.4579 11.3246 36.547 11.5444 36.5714H29.2646C29.9101 36.5714 30.1981 36.3482 30.3427 36.1595C30.5141 35.9357 30.5652 35.6498 30.5553 35.4725L30.5542 35.4527V20.8163ZM9.98267 23.19C10.1063 23.19 10.1565 23.1646 10.1683 23.1579C10.1792 23.1516 10.189 23.1436 10.2012 23.1217C10.216 23.0951 10.2315 23.0516 10.2394 22.9917C10.2422 22.9699 10.2437 22.9486 10.2442 22.9288L9.84395 22.1244L9.4437 22.9288C9.44419 22.9486 9.44568 22.9699 9.44856 22.9917C9.45644 23.0516 9.47187 23.0951 9.48668 23.1217C9.49888 23.1436 9.50874 23.1516 9.51962 23.1579C9.53138 23.1646 9.5816 23.19 9.70524 23.19H9.98267ZM8.83601 20.9162L8.03657 22.5228L8.02008 22.6338C7.97607 22.9298 7.98841 23.3917 8.22276 23.8119C8.38838 24.1089 8.64459 24.3468 8.98343 24.4853V35.5015C8.98343 36.3935 9.39792 37.0273 9.92796 37.4251C10.4299 37.8018 11.0192 37.9596 11.4444 37.9972L11.4764 38H29.2646C30.3114 38 31.0465 37.6056 31.4932 37.0224C31.9061 36.4832 32.0178 35.8547 31.9978 35.4152V17.3851C31.9978 16.4746 31.8898 15.5891 31.6857 14.7404V8.01805C31.6857 7.31129 31.3274 6.81251 30.9186 6.50602C30.5323 6.21639 30.0873 6.08211 29.7774 6.04068L29.7293 6.03424H26.6289C26.0884 6.03424 25.6202 6.34457 25.3312 6.57819C25.2043 6.68083 25.0856 6.79052 24.979 6.89858C23.5998 6.32001 22.083 6 20.4906 6C18.8995 6 17.3823 6.3199 16.0024 6.89872C15.8957 6.79064 15.777 6.68092 15.65 6.57825C15.3611 6.34464 14.8929 6.03431 14.3523 6.03431H11.252L11.2039 6.04074C10.894 6.08217 10.4489 6.21646 10.0627 6.50609C9.65389 6.81258 9.29557 7.31135 9.29557 8.01812V14.8118H9.303C9.27533 14.9433 9.24649 15.1005 9.22058 15.3212C9.17121 15.7419 9.13351 16.3856 9.12431 17.5358C9.08478 17.5526 9.04537 17.5712 9.00639 17.5917C8.67639 17.7655 8.32451 18.1199 8.32451 18.689V19.9242C8.32451 20.1895 8.42564 20.5198 8.68886 20.7872C8.73476 20.8338 8.78388 20.8768 8.83601 20.9162ZM10.7392 11.3378C11.7117 9.8057 13.0427 8.51947 14.6156 7.59372C14.5595 7.55508 14.5075 7.52436 14.4609 7.5018C14.3861 7.46554 14.3515 7.46306 14.3515 7.46289C14.3515 7.46289 14.3516 7.46288 14.3517 7.46288H11.3578C11.2388 7.48555 11.0673 7.54511 10.9345 7.64473C10.8086 7.73912 10.7392 7.84651 10.7392 8.01812V11.3378ZM26.3657 7.59364C27.9387 8.51955 29.2696 9.80597 30.2421 11.3377V8.01805C30.2421 7.84644 30.1727 7.73905 30.0468 7.64467C29.9139 7.54505 29.7425 7.48549 29.6235 7.46282H26.6295C26.6297 7.46282 26.6297 7.46282 26.6297 7.46283C26.6298 7.46299 26.5952 7.46547 26.5203 7.50174C26.4738 7.52429 26.4218 7.555 26.3657 7.59364ZM9.76813 18.8277C9.80066 18.8218 9.82868 18.8199 9.84395 18.8199C9.85922 18.8199 9.88725 18.8218 9.91978 18.8277V19.7891C9.8999 19.7915 9.87485 19.7932 9.84395 19.7932C9.81305 19.7932 9.78801 19.7915 9.76813 19.7891V18.8277ZM26.5543 29.189C26.8544 29.031 27.1795 28.9886 27.3919 28.9886C27.6043 28.9886 27.9294 29.031 28.2295 29.189C28.5595 29.3627 28.9113 29.7171 28.9113 30.2862V30.9038C28.9113 31.1691 28.8102 31.4995 28.547 31.7668C28.5011 31.8134 28.452 31.8565 28.3998 31.8958L29.1993 33.5024L29.2158 33.6134C29.2709 33.9842 29.1812 34.459 28.905 34.8533C28.6016 35.2866 28.0892 35.5982 27.3919 35.5982C26.6946 35.5982 26.1822 35.2866 25.8788 34.8533C25.6025 34.459 25.5129 33.9842 25.568 33.6134L25.5845 33.5024L26.384 31.8958C26.3318 31.8565 26.2827 31.8134 26.2368 31.7668C25.9736 31.4995 25.8725 31.1691 25.8725 30.9038V30.2862C25.8725 29.7171 26.2243 29.3627 26.5543 29.189ZM27.3919 33.104L27.0023 33.887C27.0033 33.892 27.0044 33.8973 27.0057 33.9028C27.0173 33.9526 27.0381 34.0007 27.0653 34.0396C27.0908 34.076 27.1214 34.1039 27.1606 34.1244C27.199 34.1444 27.2692 34.1696 27.3919 34.1696C27.5146 34.1696 27.5848 34.1444 27.6232 34.1244C27.6624 34.1039 27.693 34.076 27.7185 34.0396C27.7457 34.0007 27.7665 33.9526 27.7781 33.9028C27.7794 33.8973 27.7805 33.892 27.7815 33.887L27.3919 33.104ZM27.3161 30.425V30.7688C27.3359 30.7711 27.361 30.7728 27.3919 30.7728C27.4228 30.7728 27.4478 30.7711 27.4677 30.7688V30.425C27.4352 30.419 27.4072 30.4172 27.3919 30.4172C27.3766 30.4172 27.3486 30.419 27.3161 30.425Z" fill="#455A64"/>
<path fill-rule="evenodd" clip-rule="evenodd" d="M20.5 5.09589C19.8758 5.09589 19.3699 5.50067 19.3699 6H18C18 4.89543 19.1193 4 20.5 4C21.8807 4 23 4.89543 23 6H21.6301C21.6301 5.50067 21.1242 5.09589 20.5 5.09589Z" fill="#455A64"/>
<path fill-rule="evenodd" clip-rule="evenodd" d="M20.5 5.84615C19.969 5.84615 19.5385 6.36275 19.5385 7H18C18 5.34315 19.1193 4 20.5 4C21.8807 4 23 5.34315 23 7H21.4615C21.4615 6.36275 21.031 5.84615 20.5 5.84615Z" fill="#455A64"/>
<path fill-rule="evenodd" clip-rule="evenodd" d="M20.5 4.36364C19.4456 4.36364 18.5909 5.09626 18.5909 6H17C17 4.34315 18.567 3 20.5 3C22.433 3 24 4.34315 24 6H22.4091C22.4091 5.09626 21.5544 4.36364 20.5 4.36364Z" fill="#455A64"/>
<path fill-rule="evenodd" clip-rule="evenodd" d="M20.5 3.44298C18.8201 3.44298 17.4634 4.7795 17.4634 6.42196C17.4634 6.55459 17.4722 6.68485 17.4892 6.81227L16.0382 7C16.013 6.8105 16 6.61754 16 6.42196C16 3.97699 18.0176 2 20.5 2C22.9824 2 25 3.97699 25 6.42196C25 6.61754 24.987 6.8105 24.9618 7L23.5108 6.81227C23.5278 6.68485 23.5366 6.55459 23.5366 6.42196C23.5366 4.7795 22.1799 3.44298 20.5 3.44298Z" fill="#455A64"/>
<path fill-rule="evenodd" clip-rule="evenodd" d="M9 27.5C9 25.568 10.3596 24 12.0386 24H28.9614C30.6404 24 32 25.568 32 27.5C32 29.432 30.6404 31 28.9614 31H12.0386C10.3596 31 9 29.432 9 27.5ZM12.0386 25.6568C11.1564 25.6568 10.4397 26.481 10.4397 27.5C10.4397 28.519 11.1564 29.3432 12.0386 29.3432H28.9614C29.8436 29.3432 30.5602 28.519 30.5602 27.5C30.5602 26.481 29.8436 25.6568 28.9614 25.6568H12.0386Z" fill="#455A64"/>
</svg>
