<svg width="40" height="40" viewBox="0 0 40 40" fill="none" xmlns="http://www.w3.org/2000/svg">
<path fill-rule="evenodd" clip-rule="evenodd" d="M26.1784 4.59376C25.3038 5.46267 23.3357 7.37193 21.5793 9.07064C20.6868 9.93383 19.8474 10.7441 19.2312 11.3386C18.9231 11.6359 18.6708 11.8792 18.4955 12.0482C18.4078 12.1327 18.3394 12.1986 18.2929 12.2435L18.2218 12.3119C18.2218 12.312 18.2218 12.312 17.7133 11.7892L18.2218 12.312L18.209 12.3243L18.1957 12.3359C18.1912 12.3398 18.1715 12.3595 18.1516 12.3927C18.1327 12.4242 18.1209 12.456 18.116 12.485C18.1117 12.5109 18.1115 12.5416 18.1241 12.5822C18.1369 12.6239 18.1699 12.6971 18.259 12.7966C18.7737 13.3713 19.0232 14.189 19.1253 14.9355C19.2297 15.6983 19.1968 16.5057 19.0473 17.1541C18.8948 17.815 18.4613 18.817 17.7071 19.6019C16.9291 20.4115 15.7662 21.0237 14.2534 20.7043C12.9797 20.4354 12.1357 19.8585 11.6487 19.0247C11.5886 18.9217 11.5349 18.8165 11.4872 18.7097C11.4198 18.8229 11.3507 18.9294 11.2857 19.0254C11.0402 19.388 10.7666 19.7243 10.5844 19.9292L10.5189 20.0028L5.07529 23.5327L4.94058 23.5606C4.94226 23.5603 4.93467 23.5618 4.91899 23.5675C4.90382 23.573 4.884 23.5814 4.861 23.5933C4.8146 23.6173 4.76152 23.6524 4.7101 23.7003C4.61351 23.7904 4.51062 23.9359 4.47182 24.1805C4.42621 24.4679 4.53099 25.0192 4.92538 25.8239C5.30371 26.5959 5.89567 27.4951 6.65687 28.4288C7.39867 29.3387 8.51217 30.3803 9.65013 31.2921C10.7943 32.2089 11.9056 32.9483 12.6303 33.2843C13.5411 33.7066 14.0053 33.5059 14.1139 33.4479C15.4121 31.4881 17.9338 27.6771 18.173 27.299C18.3556 27.0103 18.5533 26.7555 18.894 26.5529C19.1853 26.3796 19.5523 26.2652 19.9889 26.1349C20.2249 26.0644 20.554 25.8708 20.9055 25.6047C21.243 25.3491 21.5401 25.0737 21.7027 24.9066L21.7056 24.9037L32.3724 14.1832C32.6389 13.8244 32.5641 13.4306 32.2529 13.1276C31.9191 12.8026 31.4848 12.7492 31.1542 13.0022L31.1326 12.9742C30.7006 13.4022 30.4359 13.6603 30.171 13.9185L30.1694 13.92C29.6217 14.454 29.072 14.9899 26.9874 17.0849L25.9485 16.0611C28.0389 13.9601 28.5931 13.4198 29.1478 12.879L29.1494 12.8775C29.6942 12.3463 30.2411 11.8132 32.2993 9.74482C32.5658 9.38611 32.491 8.99226 32.1798 8.68924C31.8664 8.3841 31.4643 8.31837 31.1428 8.521C29.4482 10.2143 28.0998 11.5312 27.1397 12.4579C26.5829 12.9952 26.1567 13.4013 25.8694 13.6734C25.7257 13.8095 25.6167 13.9121 25.5434 13.9808C25.5067 14.0152 25.479 14.0411 25.4604 14.0585C25.4511 14.0673 25.444 14.0738 25.4392 14.0783L25.4338 14.0834L25.4318 14.0852C25.4318 14.0852 25.4318 14.0852 24.9327 13.5536C24.4336 13.0219 24.4336 13.0219 24.4336 13.0219L24.4336 13.0219L24.4339 13.0217L24.4598 12.9975C24.4777 12.9808 24.5046 12.9556 24.5404 12.922C24.6121 12.8548 24.7194 12.7538 24.8615 12.6193C25.1456 12.3502 25.5684 11.9473 26.1217 11.4133C27.0916 10.4772 28.4625 9.1382 30.1899 7.411L30.1896 7.41056C30.1907 7.40971 30.1918 7.40886 30.1929 7.40801C30.4255 7.17548 30.6645 6.93591 30.9099 6.68934C31.1764 6.33063 31.1017 5.93678 30.7904 5.63377C30.4674 5.31931 30.0503 5.2591 29.7242 5.48484C28.9811 6.22449 28.6499 6.55868 28.5106 6.70192C28.5034 6.71123 28.4961 6.72052 28.4887 6.7298L28.4637 6.76125L28.4353 6.78978C26.3481 8.88745 25.0332 10.2269 24.2407 11.0412C23.8445 11.4484 23.5791 11.724 23.4132 11.8974C23.3303 11.9841 23.2723 12.0451 23.2353 12.0842C23.2168 12.1037 23.2035 12.1178 23.1951 12.1268C23.1908 12.1313 23.1878 12.1345 23.1859 12.1365L23.1839 12.1387L23.1835 12.1391C23.1835 12.1391 23.1835 12.1391 22.6481 11.6437C22.1126 11.1484 22.1126 11.1483 22.1127 11.1483L22.1127 11.1482L22.1167 11.1439C22.1192 11.1413 22.1228 11.1374 22.1276 11.1324C22.1371 11.1222 22.1514 11.1071 22.1709 11.0865C22.2099 11.0453 22.2697 10.9823 22.3543 10.8939C22.5235 10.7171 22.7918 10.4385 23.1904 10.0289C23.9766 9.22103 25.2703 7.90313 27.3107 5.85201C27.3212 5.83877 27.3302 5.82822 27.3354 5.82228C27.3503 5.80501 27.3685 5.78533 27.388 5.76479C27.6259 5.41518 27.5463 5.03624 27.2447 4.7426C26.9217 4.4281 26.5045 4.36792 26.1784 4.59376ZM28.7613 4.38517C28.6359 4.12784 28.4657 3.89563 28.2672 3.70243C27.5511 3.00518 26.3035 2.66085 25.2546 3.46391L25.2169 3.49271L25.1834 3.52612C24.3385 4.36688 22.3462 6.29984 20.5603 8.02711C20.1958 8.37963 19.8401 8.72335 19.5049 9.04713L19.6635 8.61774L19.6748 8.55755C19.7815 7.98824 19.6434 6.77095 18.3606 6.19642C17.64 5.87375 17.0086 5.89801 16.5019 6.1269C16.0293 6.34033 15.7548 6.69255 15.6379 6.85537C15.5801 6.93603 15.3853 7.25421 15.1411 7.65633C14.8837 8.08026 14.5426 8.64562 14.1708 9.26372C13.4271 10.5001 12.5586 11.9504 11.9857 12.9087L11.9847 12.9105L11.9836 12.9123C11.7025 13.3887 11.1982 14.6095 11.1342 16.1055C11.133 16.1347 11.1318 16.164 11.1307 16.1933C10.8659 16.4897 10.5411 16.9632 10.4335 17.5291C10.4128 17.638 10.2963 17.8826 10.0731 18.2123C9.89604 18.4739 9.69754 18.7236 9.55225 18.8928L4.48715 22.1773C3.95843 22.3467 3.19896 22.8731 3.02755 23.9535C2.90866 24.7029 3.18771 25.5977 3.61121 26.4618C4.05077 27.3587 4.71078 28.3512 5.52141 29.3456C6.35143 30.3637 7.54996 31.4775 8.73318 32.4256C9.9102 33.3687 11.1292 34.1936 12.0128 34.6033C13.5012 35.2934 14.6681 34.9785 15.1843 34.4519L15.233 34.4022L15.2714 34.3443C16.5403 32.4289 19.1563 28.4758 19.4103 28.0743C19.5383 27.872 19.5874 27.8357 19.6442 27.8019C19.7504 27.7387 19.9318 27.6712 20.409 27.5287C20.9041 27.3809 21.4036 27.056 21.7909 26.7627C22.1903 26.4603 22.5407 26.1369 22.7502 25.9219L33.4718 15.1462L33.4969 15.1148C34.3536 14.0391 34.0061 12.7988 33.2754 12.0874C33.0651 11.8826 32.8089 11.7083 32.5254 11.5845C32.7757 11.3337 33.0556 11.0527 33.3703 10.7364L33.3987 10.7079L33.4238 10.6764C34.2805 9.60075 33.933 8.36047 33.2023 7.64908C32.9674 7.42042 32.6754 7.22972 32.352 7.10499C32.7726 6.16897 32.4289 5.19334 31.8129 4.5936C31.0968 3.89635 29.8492 3.55202 28.8002 4.35508L28.7626 4.38389L28.7613 4.38517ZM17.0806 11.3934C16.9014 11.5983 16.7332 11.8894 16.6736 12.2466C16.5908 12.7429 16.7327 13.2793 17.1675 13.7648C17.4022 14.0268 17.5914 14.5097 17.6766 15.1319C17.7595 15.7379 17.7285 16.3675 17.6222 16.8286C17.5187 17.2772 17.1938 18.0306 16.6503 18.5962C16.1306 19.1371 15.4567 19.4708 14.5569 19.2809C13.5898 19.0767 13.147 18.6943 12.9129 18.2934C12.6557 17.8531 12.5741 17.2646 12.5849 16.5106C12.5865 16.3982 12.5901 16.2838 12.5951 16.1674C12.648 14.93 13.0732 13.9403 13.2435 13.6507C13.816 12.6931 14.6831 11.2452 15.4254 10.0111C15.7969 9.39356 16.1366 8.83028 16.3925 8.409C16.5205 8.19821 16.6268 8.02408 16.7053 7.89688C16.7834 7.77027 16.8201 7.71304 16.8267 7.70284C16.8274 7.70165 16.8278 7.7011 16.8278 7.70116C16.8937 7.60934 16.9847 7.50682 17.1061 7.45196C17.1934 7.41255 17.3844 7.35497 17.7605 7.5234C18.0181 7.63873 18.1301 7.79558 18.1861 7.93154C18.2382 8.05766 18.246 8.17859 18.2421 8.24857L17.0806 11.3934Z" fill="#455A64"/>
<path fill-rule="evenodd" clip-rule="evenodd" d="M20.1857 10.6901C20.22 10.2748 20.5713 9.9671 20.9704 10.0028C21.2365 10.0266 21.5199 10.134 21.7748 10.2565C22.0446 10.3861 22.3429 10.5626 22.6533 10.7755C23.2745 11.2013 23.978 11.7958 24.6408 12.5156C25.3387 13.2735 25.8829 14.2233 26.2674 15.0617C26.6496 15.8951 26.902 16.6801 26.9869 17.141C27.0623 17.5503 26.8045 17.9458 26.4112 18.0243C26.0178 18.1027 25.6378 17.8345 25.5624 17.4251C25.5083 17.1312 25.3075 16.4729 24.9585 15.7119C24.6118 14.956 24.1467 14.1605 23.5936 13.56C23.0055 12.9212 22.3855 12.3994 21.8554 12.0359C21.5902 11.8541 21.356 11.7177 21.1668 11.6269C21.0725 11.5815 20.9953 11.5504 20.9356 11.5305C20.8764 11.5109 20.8484 11.507 20.8462 11.5067C20.4472 11.471 20.1514 11.1054 20.1857 10.6901ZM11.3374 21.0392C11.6758 20.8163 12.1238 20.921 12.338 21.2732C13.5391 23.2476 15.4284 24.9452 16.5531 25.657C16.6542 25.721 16.7518 25.7811 16.8463 25.8377C17.7573 26.3834 18.4119 26.6189 19.2653 26.8092L18.9614 28.2851C18.145 28.1031 16.6534 27.4465 16.6534 27.4465L15.3849 26.6671C15.3849 26.6671 12.3114 24.0513 11.1126 22.0806C10.8983 21.7284 10.999 21.2622 11.3374 21.0392Z" fill="#455A64"/>
<path fill-rule="evenodd" clip-rule="evenodd" d="M21.3814 28.0004C21.5986 27.6543 22.0514 27.5523 22.3928 27.7726C22.8418 28.0624 23.2484 28.2889 23.5785 28.4442C23.6869 28.4952 23.7914 28.5428 23.8924 28.5874C24.8662 29.0167 25.5488 29.1721 26.4263 29.2605L26.2814 30.739C25.4421 30.6545 23.8734 30.1831 23.8734 30.1831L22.5154 29.5662C22.5154 29.5662 21.9239 29.2312 21.6061 29.0261C21.2647 28.8058 21.1641 28.3466 21.3814 28.0004Z" fill="#455A64"/>
<path fill-rule="evenodd" clip-rule="evenodd" d="M35.8409 11.8327C35.4779 11.5333 35.0396 11.5194 34.733 11.8075C34.4363 12.0864 33.9728 12.0685 33.6977 11.7676C33.4227 11.4667 33.4403 10.9966 33.7371 10.7177C34.7097 9.80349 35.9864 10.0375 36.7653 10.6799C37.56 11.3352 38.0212 12.564 37.2655 13.7375L37.2456 13.7684L36.4669 14.7494C36.7558 14.8489 37.0224 15.0004 37.2475 15.1861C38.0423 15.8414 38.5035 17.0702 37.7477 18.2437L37.7256 18.2781L37.6999 18.3097C35.8113 20.6361 33.7909 23.1588 32.2422 25.1004C31.4679 26.0711 30.8118 26.8963 30.3492 27.4789C30.118 27.7701 29.9351 28.0007 29.8101 28.1584C29.7475 28.2372 29.6995 28.2979 29.6671 28.3388L29.6181 28.4006L29.618 28.4008C29.618 28.4008 29.618 28.4009 29.0466 27.9358C29.5925 28.4313 29.5924 28.4314 29.5924 28.4314L29.5919 28.432L29.5876 28.4369C29.5848 28.44 29.5809 28.4444 29.5759 28.4499C29.566 28.461 29.5518 28.4768 29.5337 28.4968C29.4975 28.5367 29.4457 28.5933 29.3815 28.6618C29.2536 28.7983 29.0746 28.9843 28.871 29.1809C28.6687 29.3763 28.435 29.5892 28.1983 29.7763C27.9715 29.9555 27.7001 30.1448 27.4267 30.2566C26.9636 30.4459 26.7889 30.5315 26.6887 30.6056C26.6351 30.6453 26.5895 30.6867 26.4804 30.9044C26.264 31.3362 24.0181 35.5993 22.9285 37.665L22.8955 37.7275L22.8515 37.7825C22.3849 38.3661 21.2496 38.7949 19.7007 38.2317C18.6842 37.862 17.2057 37.0118 15.8104 36.0365C15.4772 35.8036 15.3933 35.341 15.623 35.0031C15.8526 34.6653 16.3088 34.5802 16.6419 34.8131C17.9995 35.7621 19.3558 36.5277 20.1953 36.833C21.1431 37.1776 21.5878 36.9304 21.6908 36.8613C22.8055 34.7477 24.9704 30.6379 25.1742 30.2312C25.3299 29.9206 25.5037 29.6432 25.825 29.4054C26.0996 29.2021 26.4553 29.0517 26.8789 28.8785C26.9602 28.8453 27.1029 28.7582 27.2977 28.6042C27.4826 28.4581 27.678 28.2812 27.8605 28.105C28.0417 27.9299 28.2031 27.7623 28.3194 27.6382C28.3774 27.5763 28.4237 27.5258 28.455 27.4912C28.4696 27.4751 28.4809 27.4625 28.4887 27.4539L28.5248 27.4083C28.5573 27.3672 28.6055 27.3064 28.6681 27.2274C28.7934 27.0694 28.9765 26.8385 29.208 26.5469C29.6711 25.9637 30.328 25.1377 31.103 24.166C32.645 22.2328 34.6556 19.7223 36.5397 17.4011C36.7725 17.0116 36.6616 16.618 36.3231 16.3389C35.9601 16.0395 35.5218 16.0256 35.2153 16.3137C34.9337 16.5784 34.4984 16.5777 34.2176 16.3121C33.9368 16.0465 33.9058 15.6062 34.1466 15.3029L36.0556 12.8979C36.2909 12.5074 36.1803 12.1126 35.8409 11.8327ZM29.0466 27.9358L29.5925 28.4313L29.6056 28.4164L29.618 28.4009L29.0466 27.9358Z" fill="#455A64"/>
</svg>
