<svg width="43" height="40" viewBox="0 0 43 40" fill="none" xmlns="http://www.w3.org/2000/svg">
<path fill-rule="evenodd" clip-rule="evenodd" d="M23.0834 7.07853C15.234 4.97531 7.20444 9.48956 5.14878 17.1614C3.9476 21.6443 5.05117 26.2131 7.74471 29.6583L29.6069 35.5163C30.2801 35.6782 31.3912 35.7521 32.4668 35.4366C33.5187 35.1281 34.5292 34.4537 35.112 33.0922C35.2761 32.7088 35.7278 32.5319 36.1208 32.6972C36.5138 32.8625 36.6994 33.3074 36.5353 33.6909C35.7496 35.5265 34.3408 36.4704 32.9244 36.8858C31.5364 37.2929 30.1351 37.1984 29.2434 36.9818L29.2344 36.9796L6.85649 30.9834L6.69689 30.7863C3.59849 26.959 2.30373 21.8107 3.65665 16.7616C5.92813 8.28431 14.8007 3.29611 23.4742 5.62015C29.2799 7.1758 33.5238 11.6136 35.0148 16.9171C35.1283 17.3209 34.8875 17.7346 34.477 17.8413C34.0665 17.948 33.6416 17.7071 33.5281 17.3034C32.1776 12.4996 28.3358 8.4859 23.0834 7.07853ZM18.0685 9.47684C18.1171 9.89222 17.8134 10.2637 17.3903 10.3066C16.1597 10.4312 12.8762 11.4483 10.3839 14.5372C10.1212 14.8629 9.63641 14.915 9.30118 14.6536C8.96596 14.3923 8.90723 13.9164 9.17 13.5907C11.9456 10.1506 15.623 8.96359 17.2144 8.80236C17.6376 8.75949 18.02 9.06147 18.0685 9.47684ZM8.39235 16.5456C8.80439 16.656 9.05094 17.072 8.94303 17.4747L8.93326 17.5111C8.82535 17.9139 8.40385 18.1508 7.99181 18.0404C7.57977 17.93 7.33322 17.5141 7.44113 17.1113L7.4509 17.0749C7.55881 16.6721 7.98031 16.4352 8.39235 16.5456Z" fill="#455A64"/>
<path fill-rule="evenodd" clip-rule="evenodd" d="M37.3654 30.4275L36.1375 21.0339C36.0909 20.7419 35.858 20.1204 35.299 19.9707L22.1771 16.4546C21.1636 16.3029 19.0029 16.4986 18.4679 18.4956C18.3876 18.8468 18.2709 19.6967 18.4457 20.2866C18.6205 20.8765 19.6861 24.1463 20.1971 25.7075C20.4041 26.2288 21.1288 27.3547 22.3711 27.6876L36.153 31.3805C36.5675 31.4383 37.3902 31.3286 37.3654 30.4275ZM21.315 20.6961C21.9053 20.8542 22.509 20.5154 22.6634 19.9393C22.8178 19.3631 22.4644 18.7678 21.8741 18.6097C21.2838 18.4515 20.6801 18.7903 20.5257 19.3665C20.3713 19.9426 20.7247 20.5379 21.315 20.6961Z" fill="#455A64"/>
</svg>
