<svg width="40" height="40" viewBox="0 0 40 40" fill="none" xmlns="http://www.w3.org/2000/svg">
<path fill-rule="evenodd" clip-rule="evenodd" d="M23.9206 2.0072C24.0759 2.02159 24.3612 2.0693 24.6153 2.26661C24.7398 2.36331 24.8666 2.48084 24.9534 2.56414C24.9988 2.60778 25.0376 2.64624 25.0652 2.67399C25.0791 2.68792 25.0903 2.69929 25.0983 2.70742C25.1023 2.71149 25.1055 2.71476 25.1078 2.71715L25.1106 2.72006L25.1115 2.721L25.1118 2.72134L25.112 2.72147L25.112 2.72153C25.1121 2.72156 25.1121 2.72159 24.5951 3.22386L25.1121 2.72159L25.1483 2.75902L25.1787 2.80127L25.1787 2.80131L25.1789 2.80155L25.1832 2.80761C25.1864 2.81202 25.1913 2.8187 25.1977 2.82753C25.2104 2.84519 25.2295 2.87143 25.2542 2.90532C25.3035 2.97311 25.3755 3.07144 25.4651 3.19277C25.6444 3.43558 25.894 3.76971 26.175 4.13512C26.7291 4.85555 27.3782 5.66159 27.8514 6.14239L33.7649 10.3103C33.7886 10.3234 33.8178 10.3401 33.8515 10.3606C33.9295 10.4081 34.0329 10.4769 34.1497 10.5693C34.3819 10.7533 34.6754 11.0378 34.9208 11.4428C35.1592 11.8361 35.305 12.2578 35.3907 12.5646C35.4345 12.7213 35.4647 12.856 35.4843 12.9531C35.4941 13.0018 35.5014 13.0415 35.5063 13.0703C35.5088 13.0846 35.5107 13.0963 35.5121 13.1051L35.5132 13.1119L35.5138 13.1161L35.5144 13.1198L35.5146 13.1213L35.5147 13.1219L35.5147 13.1222C35.5148 13.1223 35.5148 13.1224 34.8027 13.2278L35.5148 13.1224L35.5158 13.1295L37.8845 31.7461C37.8865 31.757 37.8891 31.7716 37.8922 31.7895C37.899 31.829 37.9082 31.8847 37.9184 31.9518C37.9387 32.0848 37.9636 32.2681 37.9805 32.4618C37.9969 32.6497 38.0082 32.8743 37.9925 33.0805C37.9847 33.1827 37.9685 33.3071 37.9307 33.4312C37.8972 33.5411 37.82 33.7428 37.6291 33.8995C37.4854 34.0176 37.3276 34.1054 37.1664 34.1713V35.467L37.1468 35.5496C37.0262 36.0568 36.6278 36.3059 36.2512 36.4176C35.9043 36.5204 35.4561 36.5493 34.9365 36.5493C34.4291 36.5493 33.9874 36.5232 33.6571 36.4057C33.4758 36.3413 33.2725 36.2308 33.1174 36.0314C32.9568 35.825 32.9057 35.5983 32.8983 35.4108L32.8977 35.3965V34.2758C32.8616 34.266 32.8258 34.2554 32.7904 34.2438C32.5438 34.1635 32.2445 34.0153 32.0367 33.7219C31.7926 33.3773 31.6529 32.8949 31.577 32.5861C31.535 32.4153 31.5043 32.2612 31.484 32.1499C31.4738 32.0939 31.4662 32.048 31.4609 32.0153C31.4585 32.0002 31.4566 31.9879 31.4552 31.9787L29.3672 21.1607L28.0185 31.7648L28.0093 31.8033L27.3095 31.6341C28.0093 31.8033 28.0092 31.8034 28.0092 31.8035L28.009 31.8044L28.0086 31.806L28.0075 31.8103C28.0067 31.8137 28.0056 31.8182 28.0042 31.8237C28.0028 31.8295 28.001 31.8363 27.9989 31.8443C27.9971 31.8515 27.995 31.8595 27.9926 31.8684C27.9828 31.9056 27.9685 31.9575 27.9498 32.0203C27.9128 32.1451 27.8574 32.3172 27.7835 32.5057C27.6795 32.7712 27.5051 33.1613 27.2385 33.4773C27.1853 34.0839 27.1118 35.0399 27.1118 35.4935V36.3235C27.1296 36.656 27.0226 37.0803 26.6917 37.4264C26.3366 37.7979 25.8053 37.9965 25.1304 37.9965H20.0074V36.553H25.1304C25.5258 36.553 25.6382 36.4424 25.6526 36.4273C25.6687 36.4105 25.6725 36.396 25.6736 36.3935L25.6722 36.3768V35.4935C25.6722 35.1976 25.6976 34.7432 25.7294 34.2935C25.604 34.3244 25.4933 34.3466 25.4081 34.3618C25.3532 34.3717 25.308 34.3788 25.2754 34.3836C25.259 34.386 25.2457 34.3879 25.2359 34.3892C25.2309 34.3898 25.2269 34.3904 25.2237 34.3908L25.2195 34.3913L25.218 34.3915L25.2173 34.3916L25.217 34.3916C25.2169 34.3916 25.2167 34.3916 25.1304 33.6751L25.2167 34.3916L25.1737 34.3968H20.7124V34.4003H14.8263L14.7832 34.3951L14.8696 33.6785C14.7832 34.3951 14.7831 34.3951 14.783 34.395L14.7827 34.395L14.782 34.3949L14.7805 34.3947L14.7763 34.3942C14.7731 34.3938 14.7691 34.3933 14.7641 34.3926C14.7543 34.3913 14.741 34.3895 14.7246 34.3871C14.692 34.3822 14.6468 34.3751 14.5919 34.3653C14.5067 34.35 14.396 34.3278 14.2706 34.297C14.3024 34.7467 14.3278 35.201 14.3278 35.497V36.3802L14.3264 36.397C14.3275 36.3995 14.3313 36.4139 14.3474 36.4308C14.3618 36.4458 14.4741 36.5564 14.8696 36.5564H19.9926V38H14.8696C14.1947 38 13.6634 37.8013 13.3083 37.4298C12.9774 37.0837 12.8704 36.6595 12.8882 36.327V35.497C12.8882 35.0434 12.8147 34.0874 12.7615 33.4807C12.4949 33.1647 12.3205 32.7747 12.2165 32.5092C12.1426 32.3207 12.0872 32.1486 12.0502 32.0237C12.0315 31.9609 12.0172 31.909 12.0074 31.8718C12.0024 31.8532 11.9986 31.8381 11.9958 31.8272C11.9944 31.8217 11.9933 31.8172 11.9924 31.8138L11.9914 31.8094L11.991 31.8079L11.9908 31.807C11.9908 31.8069 11.9907 31.8067 12.6905 31.6376L11.9907 31.8067L11.9815 31.7682L10.6328 21.1642L8.54482 31.9822C8.54388 31.9883 8.54271 31.9959 8.54132 32.0047C8.54063 32.0091 8.53989 32.0138 8.53909 32.0188C8.53384 32.0515 8.52616 32.0974 8.51597 32.1533C8.4957 32.2646 8.46497 32.4187 8.42296 32.5896C8.34705 32.8983 8.2074 33.3807 7.96329 33.7254C7.7555 34.0188 7.45616 34.1669 7.2096 34.2473C7.17421 34.2588 7.13839 34.2694 7.10225 34.2793V35.4L7.10168 35.4143C7.09426 35.6017 7.04319 35.8284 6.88262 36.0348C6.72746 36.2343 6.52424 36.3447 6.34294 36.4092C6.01262 36.5266 5.5709 36.5527 5.06352 36.5527C4.54387 36.5527 4.09566 36.5239 3.74884 36.4211C3.37217 36.3094 2.97383 36.0602 2.85322 35.5531L2.83359 35.4705V34.1748C2.67245 34.1088 2.51464 34.021 2.37088 33.903C2.18003 33.7462 2.10276 33.5446 2.06929 33.4347C2.03148 33.3105 2.01528 33.1862 2.00751 33.084C1.99182 32.8778 2.00312 32.6532 2.01948 32.4653C2.03635 32.2716 2.06129 32.0882 2.08156 31.9552C2.09178 31.8881 2.10103 31.8324 2.10783 31.793C2.11091 31.7751 2.1135 31.7604 2.11547 31.7495L4.48419 13.1329L4.48522 13.1259L5.1973 13.2313C4.48522 13.1259 4.48524 13.1258 4.48526 13.1256L4.48561 13.1233L4.48618 13.1195C4.48662 13.1166 4.48719 13.1129 4.48789 13.1086C4.48929 13.0998 4.49121 13.0881 4.49368 13.0737C4.49864 13.0449 4.50586 13.0053 4.51569 12.9566C4.53528 12.8594 4.56554 12.7248 4.60933 12.5681C4.69504 12.2613 4.84085 11.8396 5.07918 11.4463C5.32465 11.0412 5.61807 10.7567 5.85035 10.5728C5.96705 10.4804 6.07052 10.4116 6.14848 10.3641C6.18223 10.3435 6.21142 10.3268 6.2351 10.3138L12.1486 6.14585C12.6218 5.66505 13.2709 4.85901 13.825 4.13858C14.106 3.77317 14.3556 3.43904 14.5349 3.19623C14.6245 3.0749 14.6965 2.97657 14.7458 2.90878C14.7705 2.87489 14.7896 2.84865 14.8023 2.83099C14.8087 2.82216 14.8136 2.81548 14.8168 2.81107L14.8211 2.80501L14.8213 2.80477L14.8213 2.80473L14.8517 2.76249L14.8879 2.72505L15.4049 3.22732C14.8879 2.72505 14.8879 2.72502 14.888 2.72499L14.888 2.72494L14.8882 2.7248L14.8885 2.72446L14.8894 2.72352L14.8922 2.72061C14.8945 2.71822 14.8977 2.71495 14.9017 2.71088C14.9097 2.70275 14.9209 2.69138 14.9348 2.67745C14.9624 2.6497 15.0012 2.61124 15.0466 2.5676C15.1334 2.4843 15.2602 2.36677 15.3847 2.27007C15.6388 2.07276 15.9241 2.02505 16.0794 2.01066C16.1669 2.00256 16.2427 2.00257 16.2977 2.00457C16.3188 2.00534 16.3374 2.00642 16.3533 2.00757H19.9926V3.45116H16.2791L16.247 3.44728C16.2466 3.44726 16.2461 3.44724 16.2455 3.44721C16.2394 3.44699 16.2309 3.44695 16.2217 3.44743C16.1661 3.49404 16.1021 3.55283 16.0424 3.61018C16.0073 3.64385 15.9771 3.67379 15.9554 3.69551C15.943 3.71262 15.9272 3.73432 15.9084 3.76022C15.8573 3.83031 15.7835 3.93124 15.6918 4.05542C15.5085 4.30362 15.2531 4.64552 14.9649 5.0202C14.5398 5.57292 14.0271 6.21836 13.5648 6.73868C14.6428 7.96996 16.9817 9.80052 19.9926 9.80052H20.0074V9.79706C23.0183 9.79706 25.3572 7.9665 26.4352 6.73522C25.9729 6.2149 25.4602 5.56946 25.0351 5.01674C24.7469 4.64206 24.4915 4.30016 24.3082 4.05196C24.2165 3.92777 24.1427 3.82685 24.0916 3.75676C24.0728 3.73086 24.057 3.70916 24.0446 3.69205C24.0229 3.67033 23.9927 3.64039 23.9576 3.60672C23.8979 3.54937 23.8339 3.49058 23.7783 3.44396C23.7691 3.44349 23.7606 3.44353 23.7545 3.44375C23.7539 3.44377 23.7534 3.4438 23.753 3.44382L23.7209 3.4477H20.0074V2.0041H23.6467C23.6626 2.00296 23.6812 2.00188 23.7023 2.00111C23.7573 1.99911 23.8331 1.9991 23.9206 2.0072ZM23.8084 3.44787C23.8083 3.44799 23.8062 3.44762 23.8024 3.44646C23.8066 3.44718 23.8085 3.44776 23.8084 3.44787ZM27.5252 7.67699C26.34 9.03148 23.9158 10.9596 20.7124 11.2128V32.9533H25.08C25.0989 32.9504 25.1243 32.9462 25.1549 32.9408C25.2332 32.9267 25.3425 32.9043 25.4638 32.8715C25.7285 32.7999 25.9612 32.702 26.0888 32.5972C26.1814 32.5211 26.3178 32.2991 26.4436 31.9779C26.4988 31.837 26.5413 31.7053 26.57 31.6087C26.584 31.5614 26.5945 31.5235 26.6012 31.4982L28.507 16.5135C28.5517 16.1618 28.8445 15.8948 29.1979 15.8834C29.5512 15.872 29.8605 16.1196 29.9277 16.4676L32.8748 31.7368L32.8772 31.7535L32.8772 31.7536L32.8772 31.7539L32.8773 31.754L32.8773 31.7542L32.8773 31.7542C32.8774 31.7552 32.8777 31.757 32.8781 31.7597C32.8787 31.7632 32.8794 31.7681 32.8804 31.7744C32.8809 31.7778 32.8815 31.7817 32.8822 31.7859C32.886 31.8098 32.892 31.8456 32.9002 31.8906C32.9167 31.981 32.9415 32.1053 32.9748 32.2406C33.0424 32.5155 33.1223 32.7393 33.1898 32.8538C33.2 32.8583 33.2148 32.8642 33.2354 32.8709C33.327 32.9008 33.4685 32.9259 33.67 32.9407C33.9363 32.9602 34.2214 32.9578 34.534 32.9551C34.6639 32.954 34.7985 32.9529 34.9384 32.9533C35.0183 32.9535 35.0959 32.9539 35.1713 32.9543C35.6349 32.9569 36.0165 32.959 36.3339 32.9085C36.4293 32.8933 36.5034 32.8753 36.5604 32.8571C36.56 32.7806 36.5552 32.689 36.5464 32.5874C36.5331 32.4348 36.5128 32.2842 36.4954 32.1698C36.4867 32.1132 36.479 32.0668 36.4736 32.0352C36.4709 32.0194 36.4687 32.0074 36.4673 31.9996L36.4662 31.9934L36.4656 31.9901L36.4655 31.99L36.4655 31.9899L36.4655 31.9897L36.4617 31.9692L34.09 13.3295C34.0895 13.3263 34.0887 13.3217 34.0877 13.316C34.0849 13.2997 34.0802 13.2735 34.0733 13.2393C34.0594 13.1706 34.0371 13.071 34.0044 12.954C33.9372 12.7135 33.8345 12.4301 33.6906 12.1925C33.5537 11.9667 33.3884 11.8059 33.2575 11.7023C33.1926 11.6509 33.1384 11.6153 33.104 11.5944C33.0869 11.584 33.0751 11.5774 33.0697 11.5745C33.0692 11.5742 33.0688 11.574 33.0684 11.5738L33.022 11.5512L32.9743 11.5176L33.3882 10.9271C32.9743 11.5176 32.9742 11.5176 32.9742 11.5175L32.9741 11.5175L32.9736 11.5171L27.5252 7.67699ZM33.171 32.8443C33.171 32.8443 33.1714 32.8445 33.172 32.8449C33.1713 32.8445 33.171 32.8443 33.171 32.8443ZM12.4748 7.68045L7.02591 11.5209L7.02579 11.521C7.02576 11.521 7.02575 11.521 6.61184 10.9305L7.02575 11.521L6.97797 11.5547L6.93158 11.5772C6.93121 11.5774 6.93077 11.5777 6.93029 11.5779C6.9249 11.5808 6.91306 11.5874 6.89598 11.5978C6.86164 11.6188 6.80741 11.6544 6.74252 11.7057C6.6116 11.8094 6.44626 11.9702 6.30943 12.196C6.16545 12.4336 6.06276 12.717 5.99555 12.9575C5.96288 13.0745 5.94057 13.1741 5.92671 13.2428C5.91981 13.277 5.91508 13.3031 5.91227 13.3194C5.91128 13.3252 5.91053 13.3297 5.91 13.3329L3.53835 31.9726L3.53447 31.9933L3.53445 31.9934L3.53442 31.9935L3.53418 31.9948C3.53389 31.9965 3.53338 31.9992 3.53268 32.0031C3.53129 32.0108 3.52915 32.0229 3.52643 32.0387C3.52098 32.0703 3.51326 32.1167 3.50464 32.1733C3.48721 32.2876 3.46691 32.4382 3.45362 32.5909C3.44477 32.6925 3.44004 32.784 3.4396 32.8606C3.49662 32.8788 3.57067 32.8968 3.66613 32.9119C3.98354 32.9624 4.36513 32.9603 4.82872 32.9578C4.90415 32.9573 4.98175 32.9569 5.0616 32.9567C5.20154 32.9563 5.33612 32.9575 5.46596 32.9586C5.77856 32.9612 6.06369 32.9636 6.33003 32.9441C6.53152 32.9294 6.67299 32.9042 6.76461 32.8744C6.78518 32.8677 6.80003 32.8618 6.81025 32.8573C6.87766 32.7427 6.95763 32.5189 7.02521 32.244C7.05848 32.1087 7.08331 31.9845 7.09978 31.894C7.10797 31.8491 7.11395 31.8132 7.11778 31.7894C7.11969 31.7775 7.12105 31.7686 7.12188 31.7632L7.12247 31.7592L7.1227 31.7577L7.12271 31.7576L7.12276 31.7573L7.1252 31.7402L10.0723 16.4711C10.1395 16.123 10.4488 15.8754 10.8021 15.8868C11.1555 15.8982 11.4483 16.1652 11.493 16.5169L13.3988 31.5017C13.4055 31.5269 13.416 31.5648 13.43 31.6121C13.4587 31.7088 13.5012 31.8405 13.5564 31.9813C13.6822 32.3026 13.8186 32.5246 13.9112 32.6007C14.0388 32.7055 14.2715 32.8034 14.5362 32.875C14.6575 32.9078 14.7668 32.9302 14.8451 32.9442C14.8757 32.9497 14.9011 32.9538 14.92 32.9567H19.2728V11.2151C16.0767 10.9571 13.6582 9.03284 12.4748 7.68045ZM6.82902 32.8477C6.82903 32.8477 6.82871 32.8479 6.82802 32.8484C6.82867 32.8479 6.82901 32.8477 6.82902 32.8477ZM16.1976 3.44992C16.1938 3.45108 16.1917 3.45145 16.1916 3.45134C16.1915 3.45123 16.1934 3.45064 16.1976 3.44992ZM4.27319 34.4005V35.0629C4.42785 35.0897 4.67614 35.1091 5.06352 35.1091C5.30775 35.1091 5.49196 35.1017 5.63047 35.0882C5.64166 35.0871 5.65238 35.086 5.66265 35.0848V34.4037C5.57136 34.4035 5.4814 34.4027 5.39441 34.4019C5.27816 34.401 5.16722 34.4 5.06545 34.4003C4.99744 34.4005 4.92712 34.401 4.85505 34.4015C4.66933 34.4028 4.47205 34.4042 4.27319 34.4005ZM34.3373 34.4003V35.0814C34.3476 35.0825 34.3583 35.0836 34.3695 35.0847C34.508 35.0982 34.6923 35.1057 34.9365 35.1057C35.3239 35.1057 35.5721 35.0863 35.7268 35.0594V34.397C35.5279 34.4008 35.3307 34.3994 35.1449 34.398C35.0729 34.3975 35.0026 34.397 34.9346 34.3968C34.8328 34.3966 34.7218 34.3975 34.6055 34.3985C34.5186 34.3992 34.4286 34.4 34.3373 34.4003Z" fill="#455A64"/>
<path d="M20 10.32C16.2023 10.32 13.4111 7.73372 12.4902 6.44057C13.5365 5.40045 15.3307 2.91585 15.3307 2.91585C15.3307 2.91585 15.567 2.67198 15.7587 2.52351C15.9532 2.37285 16.2645 2.41045 16.2645 2.41045H20L23.7354 2.41042C23.7354 2.41042 24.0467 2.37282 24.2412 2.52348C24.433 2.67195 24.6693 2.91582 24.6693 2.91582C24.6693 2.91582 26.471 5.40442 27.5172 6.44454C26.5964 7.7377 23.7976 10.32 20 10.32Z" fill="#455A64"/>
</svg>
