<svg width="8" height="8" viewBox="0 0 8 8" fill="none" xmlns="http://www.w3.org/2000/svg">
<path d="M5.128 4L7.76 1.368C7.912 1.224 8 1.024 8 0.8C8 0.36 7.64 0 7.2 0C6.976 0 6.776 0.088 6.632 0.232L4 2.872L1.368 0.232C1.224 0.088 1.024 0 0.8 0C0.36 0 0 0.36 0 0.8C0 1.024 0.088 1.224 0.232 1.368L2.872 4L0.24 6.632C0.088 6.776 0 6.976 0 7.2C0 7.64 0.36 8 0.8 8C1.024 8 1.224 7.912 1.368 7.768L4 5.128L6.632 7.76C6.776 7.912 6.976 8 7.2 8C7.64 8 8 7.64 8 7.2C8 6.976 7.912 6.776 7.768 6.632L5.128 4Z" fill="#CED4DA"/>
</svg>
