<svg width="20" height="20" viewBox="0 0 20 20" fill="none" xmlns="http://www.w3.org/2000/svg">
<circle cx="10" cy="10" r="9.5" stroke="white"/>
<path d="M9.07108 12.085C9.07108 11.669 9.16308 11.325 9.34708 11.053C9.53908 10.781 9.81508 10.481 10.1751 10.153C10.4391 9.91303 10.6311 9.71303 10.7511 9.55303C10.8791 9.38503 10.9431 9.19703 10.9431 8.98903C10.9431 8.69303 10.8231 8.46103 10.5831 8.29303C10.3511 8.11703 10.0391 8.02903 9.64708 8.02903C9.27108 8.02903 8.93508 8.10903 8.63908 8.26903C8.35108 8.42103 8.10708 8.63703 7.90708 8.91703L6.45508 8.06503C6.79108 7.55303 7.24308 7.15703 7.81108 6.87703C8.38708 6.59703 9.06708 6.45703 9.85108 6.45703C10.7711 6.45703 11.5071 6.65303 12.0591 7.04503C12.6191 7.43703 12.8991 7.98103 12.8991 8.67703C12.8991 9.00503 12.8431 9.29303 12.7311 9.54103C12.6271 9.78903 12.4951 10.001 12.3351 10.177C12.1831 10.345 11.9831 10.541 11.7351 10.765C11.4391 11.029 11.2231 11.253 11.0871 11.437C10.9511 11.613 10.8831 11.829 10.8831 12.085H9.07108ZM9.98308 15.097C9.65508 15.097 9.37908 14.993 9.15508 14.785C8.93908 14.569 8.83108 14.309 8.83108 14.005C8.83108 13.701 8.93908 13.449 9.15508 13.249C9.37108 13.041 9.64708 12.937 9.98308 12.937C10.3191 12.937 10.5951 13.041 10.8111 13.249C11.0271 13.449 11.1351 13.701 11.1351 14.005C11.1351 14.309 11.0231 14.569 10.7991 14.785C10.5831 14.993 10.3111 15.097 9.98308 15.097Z" fill="white"/>
</svg>
