<svg width="18" height="18" viewBox="0 0 18 18" fill="none" xmlns="http://www.w3.org/2000/svg">
<path fill-rule="evenodd" clip-rule="evenodd" d="M3.55556 16C3.143 16 2.74733 15.8361 2.45561 15.5444C2.16389 15.2527 2 14.857 2 14.4444V3.55556C2 3.143 2.16389 2.74733 2.45561 2.45561C2.74733 2.16389 3.143 2 3.55556 2H14.4444C14.857 2 15.2527 2.16389 15.5444 2.45561C15.8361 2.74733 16 3.143 16 3.55556V14.4444C16 14.857 15.8361 15.2527 15.5444 15.5444C15.2527 15.8361 14.857 16 14.4444 16H3.55556ZM13.1176 3.64706V4.88235H14.3529V3.64706H13.1176ZM9 12.8889C10.0314 12.8889 11.0206 12.4792 11.7499 11.7499C12.4792 11.0206 12.8889 10.0314 12.8889 9C12.8889 7.9686 12.4792 6.97945 11.7499 6.25014C11.0206 5.52083 10.0314 5.11111 9 5.11111C7.9686 5.11111 6.97945 5.52083 6.25014 6.25014C5.52083 6.97945 5.11111 7.9686 5.11111 9C5.11111 10.0314 5.52083 11.0206 6.25014 11.7499C6.97945 12.4792 7.9686 12.8889 9 12.8889ZM9 11.3333C9.61884 11.3333 10.2123 11.0875 10.6499 10.6499C11.0875 10.2123 11.3333 9.61884 11.3333 9C11.3333 8.38116 11.0875 7.78767 10.6499 7.35008C10.2123 6.9125 9.61884 6.66667 9 6.66667C8.38116 6.66667 7.78767 6.9125 7.35008 7.35008C6.9125 7.78767 6.66667 8.38116 6.66667 9C6.66667 9.61884 6.9125 10.2123 7.35008 10.6499C7.78767 11.0875 8.38116 11.3333 9 11.3333Z" fill="#DDE7EE"/>
</svg>
