<svg width="40" height="40" viewBox="0 0 40 40" fill="none" xmlns="http://www.w3.org/2000/svg">
<circle cx="20" cy="20" r="19.5" fill="white" stroke="#DDE7EE"/>
<path fill-rule="evenodd" clip-rule="evenodd" d="M14.5556 27C14.143 27 13.7473 26.8361 13.4556 26.5444C13.1639 26.2527 13 25.857 13 25.4444V14.5556C13 14.143 13.1639 13.7473 13.4556 13.4556C13.7473 13.1639 14.143 13 14.5556 13H25.4444C25.857 13 26.2527 13.1639 26.5444 13.4556C26.8361 13.7473 27 14.143 27 14.5556V25.4444C27 25.857 26.8361 26.2527 26.5444 26.5444C26.2527 26.8361 25.857 27 25.4444 27H14.5556ZM24.1176 14.6471V15.8824H25.3529V14.6471H24.1176ZM20 23.8889C21.0314 23.8889 22.0206 23.4792 22.7499 22.7499C23.4792 22.0206 23.8889 21.0314 23.8889 20C23.8889 18.9686 23.4792 17.9794 22.7499 17.2501C22.0206 16.5208 21.0314 16.1111 20 16.1111C18.9686 16.1111 17.9794 16.5208 17.2501 17.2501C16.5208 17.9794 16.1111 18.9686 16.1111 20C16.1111 21.0314 16.5208 22.0206 17.2501 22.7499C17.9794 23.4792 18.9686 23.8889 20 23.8889ZM20 22.3333C20.6188 22.3333 21.2123 22.0875 21.6499 21.6499C22.0875 21.2123 22.3333 20.6188 22.3333 20C22.3333 19.3812 22.0875 18.7877 21.6499 18.3501C21.2123 17.9125 20.6188 17.6667 20 17.6667C19.3812 17.6667 18.7877 17.9125 18.3501 18.3501C17.9125 18.7877 17.6667 19.3812 17.6667 20C17.6667 20.6188 17.9125 21.2123 18.3501 21.6499C18.7877 22.0875 19.3812 22.3333 20 22.3333Z" fill="#DDE7EE"/>
</svg>
