<svg width="20" height="20" viewBox="0 0 20 20" fill="none" xmlns="http://www.w3.org/2000/svg">
<path d="M11.777 2C12.2092 2 12.6237 2.16857 12.9293 2.46863C13.2349 2.76869 13.4066 2.57565 13.4066 3L13.4068 5H16.6658C17.098 5 17.5125 5.16857 17.8181 5.46863C18.1237 5.76869 18.2953 6.17565 18.2953 6.6L8.99949 15.4V17H3.62952C3.19735 17 2.78287 16.8314 2.47728 16.5314C2.17168 16.2313 2 15.8243 2 15.4L2.00011 6.6C2.00011 5.712 2.72524 5 3.62963 5H6.88867L6.88846 3C6.88846 2.112 7.6136 2 8.51799 2H11.777ZM11.7772 5L11.777 3H8.51799L8.5182 5H11.7772ZM18.1325 9.564C18.0185 9.564 17.9044 9.612 17.8148 9.7L17 10.5L18.6703 12.14L19.485 11.34C19.6643 11.172 19.6643 10.892 19.485 10.724L18.4421 9.7C18.4025 9.6581 18.3546 9.62446 18.3014 9.60109C18.2482 9.57773 18.1908 9.56511 18.1325 9.564ZM15.9079 11.504L10.9623 16.352V18H12.6407L17.5781 13.144L15.9079 11.504Z" fill="#99ABB4"/>
</svg>
