<svg width="14" height="19" viewBox="0 0 14 19" fill="none" xmlns="http://www.w3.org/2000/svg">
<path d="M7 0C3.13556 0 0 2.73592 0 6.10714C0 11.5357 7 19 7 19C7 19 14 11.5357 14 6.10714C14 2.73592 10.8644 0 7 0ZM7 9.5C6.44621 9.5 5.90486 9.34081 5.4444 9.04256C4.98395 8.74431 4.62506 8.3204 4.41314 7.82443C4.20121 7.32846 4.14576 6.7827 4.2538 6.25618C4.36184 5.72966 4.62851 5.24602 5.0201 4.86642C5.41169 4.48682 5.9106 4.22831 6.45375 4.12358C6.99689 4.01885 7.55988 4.0726 8.07151 4.27804C8.58315 4.48348 9.02045 4.83138 9.32811 5.27774C9.63578 5.7241 9.8 6.24888 9.8 6.78571C9.79919 7.50535 9.50393 8.19528 8.979 8.70414C8.45408 9.21299 7.74236 9.49921 7 9.5Z" fill="#CED4DA"/>
</svg>
