<svg width="14" height="14" viewBox="0 0 14 14" fill="none" xmlns="http://www.w3.org/2000/svg">
<path d="M11.5882 2H2.58823C2.19053 2.00041 1.78121 2.23157 1.5 2.5C1.21879 2.76843 1.00043 3.2397 1 3.61932V9.5C1.00043 9.87962 1.21879 10.2316 1.5 10.5C1.78121 10.7684 2.19053 10.9996 2.58823 11H11.5882C11.9859 10.9996 12.2188 10.7684 12.5 10.5C12.7812 10.2316 12.9996 9.87962 13 9.5V3.61932C12.9996 3.2397 12.7812 2.76843 12.5 2.5C12.2188 2.23157 11.9859 2.00041 11.5882 2ZM11 5L7.5 7.41952C7.34957 7.53114 6.65043 7.53114 6.5 7.41952L3 5C2.81873 4.86933 2.86057 4.17118 3 4C3.13943 3.82882 3.82265 3.8499 4 3.98538L7 6L10 3.98538C10.1797 3.85582 10.8617 3.83027 11 4C11.1383 4.16973 11.1759 4.86565 11 5Z" fill="#CED4DA"/>
</svg>
