<svg width="14" height="14" viewBox="0 0 14 14" fill="none" xmlns="http://www.w3.org/2000/svg">
<circle cx="7" cy="7" r="6" fill="#CED4DA"/>
<path d="M8.75746 5.97014C9.29326 6.10409 9.83619 5.77833 9.97014 5.24254C10.1041 4.70674 9.77833 4.16381 9.24254 4.02986L8.75746 5.97014ZM5.24254 8.02986C4.70674 7.89591 4.16381 8.22167 4.02986 8.75746C3.89591 9.29326 4.22167 9.83619 4.75746 9.97014L5.24254 8.02986ZM7.75746 9.68937L7.51493 10.6595L7.75746 9.68937ZM9.24254 4.02986L6.48507 3.34049L6 5.28078L8.75746 5.97014L9.24254 4.02986ZM4 5.28078V5.71922H6V5.28078H4ZM5.51493 7.65951L8 8.28078L8.48507 6.34049L6 5.71922L5.51493 7.65951ZM8 8.28078V8.71922H10V8.28078H8ZM8 8.71922L5.24254 8.02986L4.75746 9.97014L7.51493 10.6595L8 8.71922ZM8 8.71922L7.51493 10.6595C8.77722 10.9751 10 10.0204 10 8.71922H8ZM8 8.28078H8H10C10 7.36304 9.37541 6.56308 8.48507 6.34049L8 8.28078ZM4 5.71922C4 6.63696 4.62459 7.43693 5.51493 7.65951L6 5.71922V5.71922H4ZM6.48507 3.34049C5.22278 3.02492 4 3.97963 4 5.28078H6L6 5.28078L6.48507 3.34049Z" fill="white"/>
</svg>
