<svg width="22" height="22" viewBox="0 0 22 22" fill="none" xmlns="http://www.w3.org/2000/svg">
<path fill-rule="evenodd" clip-rule="evenodd" d="M17 14.1538V9.28205C17 6.29077 15.37 3.78667 12.5 3.1241V2.46154C12.5 1.65282 11.83 1 11 1C10.17 1 9.5 1.65282 9.5 2.46154V3.1241C6.64 3.78667 5 6.28102 5 9.28205V14.1538L3 16.1026V17.0769H19V16.1026L17 14.1538ZM10.9999 20C12.0999 20 12.9999 19.1231 12.9999 18.0513H8.99993C8.99993 19.1231 9.89993 20 10.9999 20ZM6.99995 15.1282H15V9.28208C15 6.86567 13.49 4.89746 11 4.89746C8.50995 4.89746 6.99995 6.86567 6.99995 9.28208V15.1282Z" fill="white"/>
</svg>
