<svg width="18" height="18" viewBox="0 0 18 18" fill="none" xmlns="http://www.w3.org/2000/svg">
<mask id="path-1-inside-1" fill="white">
<path d="M16 0H2C0.89 0 0 0.9 0 2V16C0 17.1 0.89 18 2 18H16C17.11 18 18 17.1 18 16V2C18 0.9 17.11 0 16 0Z"/>
</mask>
<path d="M16 -1H2V1H16V-1ZM2 -1C0.334461 -1 -1 0.350975 -1 2H1C1 1.44903 1.44554 1 2 1V-1ZM-1 2V16H1V2H-1ZM-1 16C-1 17.649 0.334461 19 2 19V17C1.44554 17 1 16.551 1 16H-1ZM2 19H16V17H2V19ZM16 19C17.6655 19 19 17.649 19 16H17C17 16.551 16.5545 17 16 17V19ZM19 16V2H17V16H19ZM19 2C19 0.350975 17.6655 -1 16 -1V1C16.5545 1 17 1.44903 17 2H19Z" fill="#A3D2FC" mask="url(#path-1-inside-1)"/>
<path fill-rule="evenodd" clip-rule="evenodd" d="M10 4H8V8H4V10H8V14H10V10H14V8H10V4Z" fill="#1E88E5"/>
</svg>
