<svg width="14" height="14" viewBox="0 0 14 14" fill="none" xmlns="http://www.w3.org/2000/svg">
<path d="M9.95082 4.02582C10.7705 4.84742 11.1803 5.83881 11.1803 7C11.1803 8.16119 10.7705 9.15258 9.95082 9.97418C9.13115 10.7958 8.14208 11.2066 6.98361 11.2066C5.82514 11.2066 4.84153 10.7903 4.03279 9.95775L6.98361 7V2.79343C8.14208 2.79343 9.13115 3.20423 9.95082 4.02582ZM7 0C8.93443 0 10.5847 0.684663 11.9508 2.05399C13.3169 3.42332 14 5.07199 14 7C14 8.92801 13.3169 10.5767 11.9508 11.946C10.5847 13.3153 8.93443 14 7 14C5.06557 14 3.4153 13.3153 2.04918 11.946C0.68306 10.5767 0 8.92801 0 7C0 5.07199 0.68306 3.42332 2.04918 2.05399C3.4153 0.684663 5.06557 0 7 0ZM7 12.6197C8.54098 12.6197 9.85792 12.072 10.9508 10.9765C12.0437 9.88106 12.5902 8.55556 12.5902 7C12.5902 5.44444 12.0437 4.11894 10.9508 3.02347C9.85792 1.92801 8.54098 1.38028 7 1.38028C5.45902 1.38028 4.14208 1.92801 3.04918 3.02347C1.95628 4.11894 1.40984 5.44444 1.40984 7C1.40984 8.55556 1.95628 9.88106 3.04918 10.9765C4.14208 12.072 5.45902 12.6197 7 12.6197Z" fill="#CED4DA"/>
</svg>
