<svg width="14" height="14" viewBox="0 0 14 14" fill="none" xmlns="http://www.w3.org/2000/svg">
<path d="M7 0.21875C10.7461 0.21875 13.7812 3.25391 13.7812 7C13.7812 10.7461 10.7461 13.7812 7 13.7812C3.25391 13.7812 0.21875 10.7461 0.21875 7C0.21875 3.25391 3.25391 0.21875 7 0.21875ZM6.20977 4.14531L8.27422 6.125H3.28125C2.91758 6.125 2.625 6.41758 2.625 6.78125V7.21875C2.625 7.58242 2.91758 7.875 3.28125 7.875H8.27422L6.20977 9.85469C5.94453 10.109 5.93906 10.5328 6.19883 10.7926L6.49961 11.0906C6.75664 11.3477 7.17227 11.3477 7.42656 11.0906L11.0551 7.46484C11.3121 7.20781 11.3121 6.79219 11.0551 6.53789L7.42656 2.90664C7.16953 2.64961 6.75391 2.64961 6.49961 2.90664L6.19883 3.20469C5.93906 3.46719 5.94453 3.89102 6.20977 4.14531Z" fill="#30BE71"/>
</svg>
