<svg width="24" height="24" viewBox="0 0 24 24" fill="none" xmlns="http://www.w3.org/2000/svg">
<path fill-rule="evenodd" clip-rule="evenodd" d="M15.3819 13.6918H16.1498L21 18.5517L19.5517 20L14.6918 15.1498V14.3819L14.4294 14.1098C13.3213 15.0623 11.8828 15.6358 10.3179 15.6358C6.82847 15.6358 4 12.8073 4 9.3179C4 5.82847 6.82847 3 10.3179 3C13.8073 3 16.6358 5.82847 16.6358 9.3179C16.6358 10.8828 16.0623 12.3213 15.1098 13.4294L15.3819 13.6918ZM5.94397 9.31778C5.94397 11.738 7.89766 13.6917 10.3179 13.6917C12.7381 13.6917 14.6918 11.738 14.6918 9.31778C14.6918 6.89754 12.7381 4.94385 10.3179 4.94385C7.89766 4.94385 5.94397 6.89754 5.94397 9.31778Z" fill="#CED4DA"/>
</svg>
