<svg width="22" height="22" viewBox="0 0 22 22" fill="none" xmlns="http://www.w3.org/2000/svg">
<path d="M11.0006 14.209C10.1497 14.209 9.33363 13.871 8.73195 13.2693C8.13027 12.6676 7.79225 11.8516 7.79225 11.0007C7.79225 10.1497 8.13027 9.3337 8.73195 8.73202C9.33363 8.13034 10.1497 7.79232 11.0006 7.79232C11.8515 7.79232 12.6675 8.13034 13.2692 8.73202C13.8709 9.3337 14.2089 10.1497 14.2089 11.0007C14.2089 11.8516 13.8709 12.6676 13.2692 13.2693C12.6675 13.871 11.8515 14.209 11.0006 14.209ZM17.8114 11.8898C17.8481 11.5965 17.8756 11.3032 17.8756 11.0007C17.8756 10.6982 17.8481 10.3957 17.8114 10.084L19.7456 8.58982C19.9198 8.45232 19.9656 8.20482 19.8556 8.00315L18.0223 4.83149C17.9123 4.62982 17.6648 4.54732 17.4631 4.62982L15.1806 5.54649C14.7039 5.18899 14.2089 4.87732 13.6314 4.64815L13.2923 2.21899C13.2736 2.11102 13.2174 2.01313 13.1335 1.94266C13.0496 1.87219 12.9435 1.83369 12.8339 1.83399H9.16725C8.93809 1.83399 8.74559 1.99899 8.70892 2.21899L8.36975 4.64815C7.79225 4.87732 7.29725 5.18899 6.82059 5.54649L4.53809 4.62982C4.33642 4.54732 4.08892 4.62982 3.97892 4.83149L2.14559 8.00315C2.02642 8.20482 2.08142 8.45232 2.25559 8.58982L4.18975 10.084C4.15309 10.3957 4.12559 10.6982 4.12559 11.0007C4.12559 11.3032 4.15309 11.5965 4.18975 11.8898L2.25559 13.4115C2.08142 13.549 2.02642 13.7965 2.14559 13.9982L3.97892 17.1698C4.08892 17.3715 4.33642 17.4448 4.53809 17.3715L6.82059 16.4457C7.29725 16.8123 7.79225 17.124 8.36975 17.3532L8.70892 19.7823C8.74559 20.0023 8.93809 20.1673 9.16725 20.1673H12.8339C13.0631 20.1673 13.2556 20.0023 13.2923 19.7823L13.6314 17.3532C14.2089 17.1148 14.7039 16.8123 15.1806 16.4457L17.4631 17.3715C17.6648 17.4448 17.9123 17.3715 18.0223 17.1698L19.8556 13.9982C19.9656 13.7965 19.9198 13.549 19.7456 13.4115L17.8114 11.8898Z" fill="#CED4DA"/>
</svg>
