<svg width="40" height="40" viewBox="0 0 40 40" fill="none" xmlns="http://www.w3.org/2000/svg">
<path fill-rule="evenodd" clip-rule="evenodd" d="M11.9532 7.59088C11.9548 7.5918 11.9567 7.59285 11.9588 7.59405C11.9752 7.60328 12.001 7.61712 12.038 7.63618C12.1113 7.67398 12.2158 7.72578 12.3501 7.79089C12.6181 7.92078 12.9943 8.09854 13.4547 8.31344C14.3751 8.74297 15.6252 9.31758 17.0043 9.94749C19.762 11.2072 23.0312 12.6861 25.2005 13.6637C25.3187 13.7169 25.4115 13.814 25.4595 13.9344L26.9645 17.7103C26.9879 17.7692 27 17.832 27 17.8954V30.8736L37.3892 28.5124C37.6075 28.4628 37.8323 28.5644 37.9392 28.7611C38.0462 28.9578 38.0094 29.2017 37.8491 29.358L35.8971 31.2613C35.8316 31.3253 35.7497 31.37 35.6605 31.3906L25.1075 33.8251L25.1045 33.8257L17.6948 35.4879C17.5892 35.5116 17.4787 35.5003 17.3799 35.4559C15.2098 34.4779 11.9389 32.9982 9.1791 31.7376C7.79937 31.1073 6.54633 30.5314 5.62217 30.1001C5.16038 29.8846 4.77893 29.7044 4.50427 29.5712C4.3673 29.5048 4.25422 29.4489 4.17003 29.4055C4.12823 29.3839 4.09031 29.3638 4.05876 29.346L4.05737 29.3453C4.03685 29.3337 3.98552 29.3049 3.9408 29.2685C3.91086 29.2442 3.88383 29.2165 3.86026 29.1859L2.10414 26.91C2.03662 26.8225 2 26.7151 2 26.6046V13C2 12.9189 2.01974 12.839 2.05751 12.7672L3.81363 9.42933C3.88188 9.2996 4.00364 9.20635 4.14668 9.17426L11.5564 7.51213C11.6943 7.48118 11.8384 7.51019 11.9532 7.59088ZM26 31.1016V18.523L20 19.8984V32.477L26 31.1016ZM19 32.5382L16 32.1632V19.5664L19 19.9414V32.5382ZM19.7668 18.9259L25.8195 17.5385L24.6885 14.7007L18.3261 16.1279L19.7668 18.9259ZM16.8493 15.9982C14.6994 15.0286 11.7223 13.6809 9.1791 12.5192C7.79937 11.889 6.54633 11.313 5.62217 10.8817C5.16038 10.6662 4.77893 10.486 4.50427 10.3529C4.4917 10.3468 4.47932 10.3408 4.46716 10.3349L3.17616 12.7887C3.43475 12.9151 3.79639 13.0873 4.23884 13.2954C5.12827 13.7137 6.33713 14.2733 7.67492 14.8882C10.1934 16.0459 13.1651 17.3978 15.314 18.3676L16.8493 15.9982ZM16.3532 18.6028L17.5358 16.7776L18.6216 18.8863L16.3532 18.6028ZM15 19.323C12.8421 18.3495 9.81619 16.9731 7.25727 15.7968C5.91861 15.1815 4.70665 14.6204 3.81327 14.2003C3.50136 14.0536 3.22741 13.9237 3 13.8144V26.3063C3.05002 26.3313 3.1073 26.3596 3.17169 26.3911C3.43058 26.5176 3.79383 26.6907 4.23884 26.8999C5.12827 27.3182 6.33713 27.8779 7.67492 28.4928C10.0729 29.5951 12.8818 30.8734 15 31.8304V19.323ZM16.7361 33.263L18.4171 33.4731L17.6125 34.2696L16.7361 33.263ZM15.7066 33.6034L15.1947 33.0154C13.0268 32.0381 9.89414 30.6135 7.25727 29.4014C6.10129 28.87 5.0398 28.3792 4.19634 27.9845L4.59256 28.498C4.60308 28.5036 4.61496 28.5098 4.6283 28.5167C4.70162 28.5545 4.8061 28.6063 4.94044 28.6714C5.20841 28.8013 5.58459 28.979 6.04507 29.1939C6.96546 29.6234 8.21555 30.1981 9.59459 30.828C11.5668 31.7288 13.8006 32.7418 15.7066 33.6034ZM4.53556 28.4666C4.53558 28.4666 4.53665 28.4672 4.53856 28.4684C4.53648 28.4672 4.53554 28.4666 4.53556 28.4666ZM2.78093 26.1917C2.78098 26.1917 2.78195 26.1923 2.78366 26.1934C2.78173 26.1922 2.78088 26.1917 2.78093 26.1917ZM19.1736 34.1313L24.7174 32.8877L25.1873 32.3139L19.7505 33.5601L19.1736 34.1313ZM26.7781 31.9495L26.3099 32.5214L35.2992 30.4476L35.8805 29.8808L26.7781 31.9495ZM5.75277 9.83884C5.84593 9.88253 5.94345 9.92814 6.04507 9.97557C6.96546 10.4051 8.21555 10.9797 9.59459 11.6096C12.2886 12.8402 15.4708 14.28 17.6387 15.2573L23.4244 13.9594C21.3782 13.0354 18.8169 11.8749 16.5888 10.8571C15.209 10.2269 13.956 9.6509 13.0318 9.21961C12.5701 9.0041 12.1886 8.82389 11.9139 8.69076C11.7819 8.62674 11.672 8.57241 11.5888 8.52969L5.75277 9.83884ZM11.9481 7.5879C11.9461 7.58669 11.9452 7.58611 11.9452 7.58613C11.9453 7.58614 11.9463 7.58675 11.9481 7.5879Z" fill="#455A64"/>
<path fill-rule="evenodd" clip-rule="evenodd" d="M23.4614 4.59931C23.4602 4.59838 23.4595 4.59785 23.4596 4.59778C23.4598 4.5974 23.479 4.6093 23.5319 4.63736C23.5983 4.67248 23.6925 4.72018 23.8142 4.78013C24.0569 4.89966 24.3966 5.06196 24.8144 5.25862C25.6494 5.65162 26.7877 6.17777 28.0662 6.76507C29.5672 7.45461 31.2581 8.22681 32.8755 8.96545C34.0142 9.4855 35.1165 9.98891 36.0905 10.4351C36.2056 10.4879 36.2965 10.5824 36.3447 10.6995L37.9632 14.6349C37.988 14.6952 38.0008 14.7598 38.0008 14.8251V29C38.0008 29.2294 37.8446 29.4294 37.622 29.4851L29.622 31.4851C29.4727 31.5224 29.3144 31.4889 29.1931 31.3941C29.0717 31.2994 29.0008 31.154 29.0008 31V16.8821L28.069 12.8522C27.1538 12.4331 26.1336 11.9672 25.0816 11.4868C23.4626 10.7474 21.7686 9.97375 20.2673 9.28409C18.9883 8.69657 17.8465 8.16881 17.0071 7.77371C16.5877 7.57631 16.2416 7.41101 15.9909 7.2875C15.957 7.27082 15.9247 7.25479 15.8939 7.23945L14.3765 8.96808L13.625 8.30838L15.4051 6.28046C15.4756 6.20017 15.5699 6.14457 15.6743 6.1218L23.0558 4.51149C23.1977 4.48053 23.3456 4.51289 23.4614 4.59931ZM17.2774 6.79559C17.328 6.81947 17.3798 6.84392 17.433 6.86892C18.2679 7.26193 19.4062 7.78808 20.6847 8.37538C22.186 9.06501 23.8771 9.83733 25.4946 10.5761C26.5744 11.0692 27.6214 11.5473 28.5573 11.9759L34.3111 10.7207C33.717 10.4491 33.0955 10.1653 32.4625 9.87618C30.8436 9.13688 29.1499 8.36335 27.6487 7.67378C26.3698 7.08626 25.228 6.5585 24.3886 6.16341C23.9692 5.96601 23.6231 5.80071 23.3723 5.6772C23.2557 5.61976 23.1571 5.57006 23.0802 5.52967L17.2774 6.79559ZM35.5793 11.4675L29.102 12.8806L29.8733 16.2166L36.8183 14.4803L35.5793 11.4675ZM37.0008 15.4655L30.0008 17.2155V30.3596L37.0008 28.6096V15.4655Z" fill="#455A64"/>
<path d="M15.3576 32.8845L19.6715 33.1763L27 31.5714L25.0439 33.4017L17.6185 35C13.2699 33.1196 4.5104 29.31 4.26091 29.1155L2 27C2.24948 27.1945 11.009 31.0041 15.3576 32.8845Z" fill="#455A64"/>
<path d="M37 29L26.9762 31.3729L26 33L35.8333 30.9661L37 29Z" fill="#455A64"/>
<path d="M10 17V21.5L7 20V15.5L10 17Z" fill="#455A64"/>
</svg>
