<svg width="40" height="40" viewBox="0 0 40 40" fill="none" xmlns="http://www.w3.org/2000/svg">
<path d="M3.5 13L3.05075 12.7805C3.01736 12.8489 3 12.9239 3 13H3.5ZM37.5 15H38C38 14.907 37.9741 14.8159 37.9251 14.7368L37.5 15ZM17.7461 34.2961L17.5398 34.7515C17.6389 34.7964 17.7499 34.8077 17.856 34.7838L17.7461 34.2961ZM3.5 26.0767H3C3 26.1721 3.02732 26.2656 3.07874 26.346L3.5 26.0767ZM37.5 28.0767L37.8472 28.4365C37.9449 28.3422 38 28.2124 38 28.0767H37.5ZM4.99431 28.414L4.57305 28.6833C4.60159 28.7279 4.63705 28.7678 4.6781 28.8013L4.99431 28.414ZM24.8347 32.6984L24.9447 33.1863L24.9543 33.1839L24.8347 32.6984ZM4.99431 9.94132L4.87861 9.45489C4.7331 9.4895 4.61072 9.58744 4.54506 9.72184L4.99431 9.94132ZM35.4089 11.6223L35.834 11.3591C35.7817 11.2747 35.7056 11.2078 35.6151 11.1668L35.4089 11.6223ZM22.6571 5.74023L22.9733 5.35293C22.8527 5.25441 22.693 5.21776 22.5414 5.2538L22.6571 5.74023ZM35.4089 30.095L35.5284 30.5805C35.6141 30.5594 35.6926 30.516 35.7561 30.4547L35.4089 30.095ZM10.0552 16.5527L9.81699 16.9923L9.83332 17.0012L9.85025 17.0088L10.0552 16.5527ZM15.4232 19.4941L19.4232 20.1158L19.5768 19.1276L15.5768 18.5059L15.4232 19.4941ZM19.6243 20.106L37.6243 15.4843L37.3757 14.5157L19.3757 19.1374L19.6243 20.106ZM15 19V32.0767H16V19H15ZM19 19.6217V32.6984H20V19.6217H19ZM15.1486 32.4324L17.3946 34.6517L18.0975 33.9404L15.8514 31.721L15.1486 32.4324ZM15.4232 32.5708L19.4232 33.1925L19.5768 32.2043L15.5768 31.5826L15.4232 32.5708ZM18.0828 34.6657L19.8367 33.068L19.1633 32.3288L17.4094 33.9264L18.0828 34.6657ZM3.18378 26.464C3.23854 26.5087 3.32609 26.5586 3.3804 26.5896C3.45489 26.6322 3.55457 26.6872 3.67535 26.7528C3.91749 26.8841 4.25301 27.062 4.6599 27.2749C5.47412 27.7009 6.57953 28.2697 7.80675 28.8908C10.2593 30.1322 13.2077 31.5877 15.2938 32.5322L15.7062 31.6212C13.6409 30.6861 10.7084 29.2387 8.25835 27.9986C7.03427 27.379 5.93294 26.8124 5.12349 26.3889C4.71853 26.177 4.38797 26.0016 4.15212 25.8737C4.0339 25.8096 3.94159 25.7585 3.87642 25.7213C3.79105 25.6725 3.79123 25.669 3.81622 25.6894L3.18378 26.464ZM3 13V26.0767H4V13H3ZM37 15V28.0767H38V15H37ZM19.6243 33.1827L37.6243 28.561L37.3757 27.5924L19.3757 32.2141L19.6243 33.1827ZM4.6781 28.8013C4.72351 28.8384 4.77552 28.8674 4.794 28.8779C4.82452 28.8951 4.86107 28.9146 4.90117 28.9354C4.98196 28.9772 5.09033 29.0311 5.22143 29.095C5.48434 29.223 5.84938 29.3963 6.2912 29.6035C7.1754 30.0181 8.37422 30.5717 9.69419 31.1775C12.3345 32.3892 15.4637 33.8115 17.5398 34.7515L17.9523 33.8406C15.8771 32.9009 12.7495 31.4794 10.1113 30.2686C8.79202 29.6632 7.59617 29.1109 6.71574 28.698C6.27524 28.4915 5.91547 28.3207 5.65927 28.1959C5.53081 28.1334 5.43105 28.0837 5.36115 28.0475C5.32591 28.0292 5.30147 28.016 5.28613 28.0074C5.25874 27.9919 5.28 28.0017 5.31053 28.0267L4.6781 28.8013ZM5.41557 28.1446L3.92126 25.8074L3.07874 26.346L4.57305 28.6833L5.41557 28.1446ZM25.0061 33.1681L37.6714 28.5464L37.3286 27.607L24.6633 32.2287L25.0061 33.1681ZM17.856 34.7838L24.9447 33.1862L24.7248 32.2106L17.6361 33.8083L17.856 34.7838ZM4.6781 10.3286C4.72351 10.3657 4.77552 10.3948 4.794 10.4052C4.82452 10.4225 4.86107 10.442 4.90117 10.4627C4.98196 10.5046 5.09033 10.5585 5.22143 10.6223C5.48434 10.7504 5.84938 10.9236 6.2912 11.1308C7.1754 11.5454 8.37422 12.099 9.69419 12.7048C12.3345 13.9166 15.4637 15.3388 17.5398 16.2789L17.9523 15.3679C15.8771 14.4283 12.7495 13.0067 10.1113 11.796C8.79202 11.1905 7.59617 10.6382 6.71574 10.2254C6.27524 10.0188 5.91547 9.84804 5.65927 9.72327C5.53081 9.66071 5.43105 9.61101 5.36115 9.57481C5.32591 9.55655 5.30147 9.54338 5.28613 9.5347C5.25874 9.51922 5.28 9.52908 5.31053 9.55401L4.6781 10.3286ZM17.8618 16.3098L35.5246 12.1087L35.2932 11.1359L17.6304 15.337L17.8618 16.3098ZM4.54506 9.72184L3.05075 12.7805L3.94925 13.2195L5.44356 10.1608L4.54506 9.72184ZM17.3378 15.5347L15.0917 18.7113L15.9083 19.2887L18.1543 16.1121L17.3378 15.5347ZM17.2921 16.033L19.0461 19.8313L19.9539 19.4121L18.2 15.6138L17.2921 16.033ZM34.9838 11.8855L37.0749 15.2632L37.9251 14.7368L35.834 11.3591L34.9838 11.8855ZM22.3409 6.12754C22.3863 6.16462 22.4383 6.19369 22.4568 6.20414C22.4873 6.2214 22.5239 6.24088 22.564 6.26165C22.6448 6.3035 22.7531 6.3574 22.8842 6.42124C23.1471 6.54927 23.5122 6.72255 23.954 6.92972C24.8382 7.34431 26.037 7.89795 27.357 8.50374C29.9973 9.71547 33.1265 11.1378 35.2026 12.0778L35.6151 11.1668C33.5399 10.2272 30.4123 8.80566 27.7741 7.59488C26.4548 6.98942 25.259 6.43713 24.3785 6.02431C23.938 5.81776 23.5783 5.64696 23.3221 5.52219C23.1936 5.45962 23.0938 5.40993 23.024 5.37372C22.9887 5.35547 22.9643 5.3423 22.9489 5.33362C22.9215 5.31814 22.9428 5.328 22.9733 5.35293L22.3409 6.12754ZM22.5414 5.2538L4.87861 9.45489L5.11001 10.4277L22.7728 6.22666L22.5414 5.2538ZM35.7561 30.4547L37.8472 28.4365L37.1528 27.7169L35.0617 29.7352L35.7561 30.4547ZM24.9543 33.1839L35.5284 30.5805L35.2893 29.6095L24.7152 32.2129L24.9543 33.1839ZM3.26176 13.4396L9.81699 16.9923L10.2935 16.1131L3.73824 12.5604L3.26176 13.4396ZM9.85025 17.0088L15.295 19.4561L15.705 18.5439L10.2602 16.0967L9.85025 17.0088Z" fill="#455A64"/>
<path d="M15.5755 32.1892L19.6898 32.4799L26.6792 30.8809L24.8137 32.7045L17.7318 34.297C13.5844 32.4234 5.23018 28.6278 4.99224 28.434L2.83594 26.3262C3.07387 26.52 11.4281 30.3156 15.5755 32.1892Z" fill="#455A64"/>
<path d="M35.5964 28.7012L26.6879 30.8919L25.8203 32.394L34.5596 30.5163L35.5964 28.7012Z" fill="#455A64"/>
<path d="M27 18V23L30 22.5V17.5L27 18Z" fill="#455A64"/>
</svg>
